PathFileType	4	(X/Y/Z)	\\147.46.242.158\로컬 디스크 (e)\MOCAP Data\Iguana Capture\iguana\Project 2\Capture day 7\Session 2\Take12.trc
DataRate	CameraRate	NumFrames	NumMarkers	Units	OrigDataRate	OrigDataStartFrame	OrigNumFrames
120.0	120.0	16	23	mm	120.0	1	16798
Frame#	Time	ana:head1			ana:head2			ana:bone1			ana:bone2			ana:bone3			ana:tail1			ana:tail2			ana:tail3			ana:tail4			ana:Rforefoot1			ana:Rforefoot2			ana:Rforefoot3			ana:Lforefoot1			ana:Lforefoot2			ana:Lforefoot3			ana:RhindLeg1			ana:RhindLeg2			ana:RhindLeg3			ana:RhindLeg4			ana:LhindLeg1			ana:LhindLeg2			ana:LhindLeg3			ana:LhindLeg4			
		X1	Y1	Z1	X2	Y2	Z2	X3	Y3	Z3	X4	Y4	Z4	X5	Y5	Z5	X6	Y6	Z6	X7	Y7	Z7	X8	Y8	Z8	X9	Y9	Z9	X10	Y10	Z10	X11	Y11	Z11	X12	Y12	Z12	X13	Y13	Z13	X14	Y14	Z14	X15	Y15	Z15	X16	Y16	Z16	X17	Y17	Z17	X18	Y18	Z18	X19	Y19	Z19	X20	Y20	Z20	X21	Y21	Z21	X22	Y22	Z22	X23	Y23	Z23	

2230	18.575	286.10217	213.04849	56.03530	277.66251	206.66658	56.65737	267.52255	187.67838	45.31342	270.69827	159.49258	36.89452	275.01083	128.26465	22.64799	275.97568	100.03927	15.44143	285.39532	63.64814	8.82290	295.69330	23.13178	7.06436	302.17715	-18.85228	5.66623	282.25247	193.70624	27.59947	285.77866	187.46339	13.09468	274.48093	196.37148	2.27840	257.70624	191.38641	27.87891	254.31747	179.85983	19.85096	251.90782	179.80443	3.55129	284.66153	131.26605	16.94719	301.89209	140.30554	18.57064	312.74164	133.08218	2.69198	316.38483	142.86975	3.57282	265.59540	130.58301	15.44610	247.16763	130.76060	16.11185	233.19783	117.89594	2.73709	225.18832	124.20686	4.14227	
2231	18.583	286.46451	212.87782	56.02340	277.73743	206.56479	56.06023	267.67538	187.69681	45.36271	270.85596	159.52487	37.14588	275.02307	128.31776	22.84701	275.92941	99.91954	15.64476	285.36588	63.59102	8.82836	295.73914	23.03476	7.12984	302.08823	-18.40632	5.74181	281.26395	193.24864	27.35231	287.00742	188.28456	13.80904	274.49826	196.31941	2.28472	257.77621	191.46609	27.79357	254.42706	179.88667	19.86712	251.83852	179.90298	3.68323	284.56439	131.21255	17.06166	301.93073	140.09618	18.71276	312.81418	133.23778	3.08222	315.65924	143.27638	2.86712	265.67935	130.56937	15.41965	247.08214	130.73236	16.29616	233.19890	117.99968	2.61207	225.19174	124.18108	4.18699	
2232	18.592	286.84933	212.75850	55.81591	277.65167	206.85883	55.66117	267.80615	187.71782	45.40314	270.89597	159.44583	37.22967	274.96109	128.22971	22.86867	275.83469	99.83727	15.74949	285.39273	63.54365	8.87673	295.68167	23.10607	6.98678	302.07059	-18.41968	5.72339	281.35220	193.08119	27.33786	287.07043	188.21039	13.74372	274.47763	196.40483	2.44573	258.02704	191.56480	28.06641	254.47163	179.92628	19.94869	251.81427	179.90247	3.73287	284.47610	131.11804	17.25810	301.92435	139.88762	18.90539	312.81967	133.13385	3.09460	315.67499	143.19861	2.94036	265.62341	130.55028	15.44318	247.03860	130.70335	16.29366	233.50212	117.51983	3.37121	225.13914	124.19888	4.19338	
2233	18.600	286.40881	213.08504	55.76477	278.24872	206.46936	55.97219	267.93427	187.75311	45.41848	270.07123	159.94276	37.19006	274.65665	129.33739	22.77460	275.75500	99.84465	15.90628	285.43219	63.52684	8.93380	295.71323	23.05882	7.06285	302.06168	-18.39561	5.72154	281.64700	193.06326	27.30690	287.02524	188.17917	13.63432	274.46860	196.39450	2.37576	258.20697	191.54761	27.96273	254.52124	179.97595	19.92089	251.84584	179.96799	3.70425	284.37622	131.09813	17.28738	301.84677	140.53101	18.83980	312.85406	133.25850	2.98028	315.74139	143.26202	2.90423	265.68491	130.56805	15.47397	246.96996	130.66541	16.38966	233.90047	117.53599	3.14113	225.17036	124.18388	4.17873	
2234	18.608	286.60638	213.01254	55.70086	278.59311	206.34496	55.93002	268.04327	187.82086	45.44648	269.66663	160.19214	37.23384	274.48590	129.60017	22.86704	275.68292	99.82399	16.04337	285.45364	63.49858	8.97973	295.70715	23.04656	7.05940	302.03796	-18.35565	5.73466	281.74857	192.94742	27.27491	287.17496	188.20514	13.63204	274.46329	196.39297	2.36707	258.37308	191.57158	27.97267	254.58714	180.02875	19.94047	251.81798	180.09612	3.74426	284.30634	131.04352	17.37577	301.81601	140.62572	18.88634	312.95911	133.33583	2.92471	315.69714	143.30252	2.83061	265.75290	130.45636	15.53295	246.89819	130.65291	16.44036	234.09174	117.46046	3.20417	225.15965	124.18478	4.17960	
2235	18.617	286.85016	212.92522	55.61012	278.96774	206.22458	55.93005	268.13806	187.91743	45.47274	269.51669	160.32021	37.30428	274.31885	129.73793	22.99046	275.61130	99.81631	16.16616	285.46133	63.46072	9.04970	295.69202	23.04117	7.05470	302.02856	-18.35537	5.74006	281.94351	192.85138	27.26274	287.25177	188.14311	13.56787	274.44095	196.38782	2.34828	258.53644	191.58066	27.97536	254.73369	180.12540	19.90837	251.78020	180.26849	3.78781	284.25348	130.99030	17.44910	301.78046	140.66545	18.92299	313.09921	133.41982	2.81039	315.70804	143.30830	2.80123	265.84015	130.24983	15.62499	246.84766	130.65759	16.45893	234.21936	117.42031	3.23659	225.14876	124.19447	4.17442	
2236	18.625	287.30359	212.77217	55.53600	279.34189	206.10124	55.93050	268.22498	188.04607	45.50084	269.61545	160.30902	37.38557	274.18228	129.75510	23.14149	275.53085	99.81631	16.28591	285.46829	63.41995	9.11895	295.67618	23.03848	7.05068	302.02322	-18.35484	5.74406	282.14474	192.75261	27.25983	287.22903	187.98756	13.43388	274.42679	196.39313	2.35720	258.69333	191.57716	27.96235	254.94775	180.25055	19.82672	251.73596	180.46478	3.83493	284.21454	130.94168	17.50357	301.74826	140.64636	18.95372	313.25754	133.51160	2.68689	315.71756	143.31046	2.76419	265.93237	129.94719	15.74967	246.81587	130.67239	16.47077	234.28564	117.42451	3.22345	225.14093	124.20648	4.16458	
2237	18.633	287.90762	212.53539	55.46221	279.68018	206.00362	55.90022	268.31668	188.18282	45.53521	269.97433	160.15289	37.47626	274.08765	129.62808	23.30069	275.42535	99.80762	16.40230	285.45029	63.35908	9.20226	295.67163	23.03653	7.04089	302.02252	-18.36212	5.74481	282.35037	192.62541	27.28820	287.13724	187.76035	13.24290	274.44284	196.42920	2.45086	258.85287	191.57379	27.95692	255.22205	180.40042	19.70440	251.69975	180.64259	3.87817	284.18604	130.89070	17.55538	301.72723	140.53802	18.99357	313.40494	133.58220	2.58058	315.72568	143.31020	2.72542	265.96579	129.58458	15.91115	246.80179	130.68828	16.47482	234.29121	117.44653	3.21341	225.13213	124.21980	4.15452	
2238	18.642	288.55374	212.29214	55.40720	279.99310	205.91745	55.83752	268.43051	188.30264	45.56614	270.49878	159.84651	37.57498	274.02512	129.53023	23.43779	275.27899	99.75940	16.54082	285.41434	63.28277	9.29378	295.68274	23.02871	7.02702	302.03070	-18.36980	5.73944	282.54742	192.47295	27.34005	287.04095	187.48343	13.03669	274.48514	196.47964	2.57755	259.01108	191.56816	27.95934	255.47646	180.54837	19.57255	251.68224	180.77551	3.90836	284.16794	130.83925	17.60819	301.71338	140.43121	19.03364	313.45709	133.59166	2.53137	315.73209	143.30605	2.69085	265.90323	129.32477	16.07819	246.80505	130.69818	16.47955	234.29256	117.47002	3.21174	225.12590	124.23357	4.14496	
2239	18.650	289.18744	212.04755	55.33749	280.30020	205.80692	55.76243	268.57562	188.31892	45.63351	270.80673	159.63054	37.66321	273.99304	129.46271	23.53591	275.09445	99.67815	16.69058	285.36966	63.19140	9.38798	295.71655	23.00841	7.01338	302.03772	-18.39661	5.73753	282.75253	192.29405	27.41866	286.98410	187.18555	12.85316	274.58347	196.52306	2.72884	259.18063	191.55978	27.95865	255.67218	180.67627	19.46049	251.70300	180.79549	3.90590	284.15784	130.77248	17.67500	301.70361	140.33458	19.06858	313.41809	133.55769	2.54989	315.73746	143.31203	2.65486	265.76465	129.10474	16.24655	246.78783	130.66756	16.52795	234.28569	117.49543	3.20627	225.12856	124.23992	4.13875	
2240	18.658	289.82660	211.74539	55.29848	280.61099	205.68446	55.66878	268.74957	188.23257	45.72087	270.95746	159.47549	37.78611	273.92935	129.38043	23.64031	274.88181	99.56518	16.84869	285.32855	63.09464	9.47191	295.76724	22.96815	7.00046	302.04718	-18.43283	5.73237	283.09485	192.11798	27.58024	287.01996	186.89667	12.71229	274.76114	196.54170	2.89143	259.34283	191.54907	27.96503	255.83388	180.75717	19.37446	251.74609	180.76814	3.88000	284.15155	130.67670	17.77333	301.70374	140.23988	19.10612	313.28247	133.46925	2.64547	315.73846	143.31941	2.62982	265.59244	129.00031	16.40358	246.76064	130.61972	16.58696	234.27751	117.51653	3.19560	225.12837	124.24156	4.13403	
2241	18.667	290.37576	211.48291	55.21370	280.97833	205.56860	55.56424	268.97806	188.04962	45.80355	271.04175	159.37866	37.91164	273.84174	129.27966	23.75381	274.66803	99.42491	17.00985	285.29626	62.99760	9.53989	295.81610	22.92000	6.98599	302.06342	-18.48419	5.72906	283.53461	191.94533	27.78523	287.20370	186.60457	12.67675	275.01669	196.51511	3.03137	259.50504	191.53215	27.97532	255.93163	180.78735	19.33809	251.80498	180.68233	3.84594	284.15347	130.55011	17.89575	301.70850	140.07608	19.14984	313.18512	133.40543	2.72050	315.73154	143.32179	2.61494	265.38147	128.94858	16.58861	246.73367	130.53757	16.65157	234.26161	117.53706	3.18400	225.12740	124.24026	4.13853	
2242	18.675	290.93408	211.19762	55.12062	281.38065	205.47272	55.43483	269.23764	187.84171	45.87238	271.06000	159.34193	38.05570	273.76852	129.17874	23.84902	274.46487	99.29404	17.15103	285.28250	62.91452	9.58255	295.85999	22.86926	6.96322	302.07608	-18.54371	5.73210	284.08044	191.79472	28.02628	287.51474	186.28491	12.71759	275.36475	196.47133	3.16645	259.66956	191.50961	27.99015	255.98886	180.77068	19.35233	251.85402	180.63434	3.80763	284.15631	130.39610	18.03306	301.72446	139.86540	19.19462	313.18817	133.39175	2.76670	315.71490	143.32605	2.59247	265.22604	128.85515	16.76945	246.67589	130.42909	16.73445	234.24930	117.55238	3.17567	225.12399	124.24997	4.13969	
2243	18.683	291.39737	210.95715	54.99117	281.81570	205.39392	55.29640	269.52786	187.65868	45.89029	271.19482	159.29294	38.25150	273.71280	129.08252	23.92828	274.28372	99.17500	17.26418	285.26147	62.82739	9.63211	295.89227	22.81893	6.94140	302.09177	-18.59369	5.72155	284.55786	191.63481	28.19604	287.98651	185.95085	12.86365	275.82043	196.39090	3.31289	259.90030	191.41660	27.98923	256.09296	180.75801	19.36808	251.90942	180.56940	3.76521	284.15521	130.21922	18.17865	301.74860	139.60106	19.24061	313.26404	133.42249	2.75568	315.69193	143.33134	2.56050	265.14200	128.73706	16.92673	246.63806	130.32269	16.79594	234.23152	117.56767	3.16798	225.12051	124.27563	4.13985	
2244	18.692	291.92810	210.72061	54.86441	282.26950	205.32071	55.15455	269.83630	187.54073	45.86063	271.40030	159.21796	38.42422	273.66699	128.97690	24.00849	274.12317	99.08181	17.35967	285.24603	62.74274	9.69541	295.91010	22.77593	6.92197	302.10889	-18.63348	5.70361	284.92960	191.45935	28.26123	288.56860	185.54617	13.11527	276.45892	196.31631	3.52895	260.15826	191.35542	27.97508	256.22888	180.74805	19.38059	251.94188	180.56735	3.73988	284.15106	130.04706	18.31504	301.77548	139.31567	19.28947	313.39557	133.48715	2.69502	315.66904	143.32327	2.53789	265.11697	128.62279	17.05689	246.62279	130.25998	16.83462	234.22417	117.57249	3.17077	225.11610	124.31735	4.14009	
2245	18.700	292.48560	210.45558	54.74591	282.75085	205.23177	55.02451	270.15582	187.48311	45.79475	271.58957	159.16022	38.55748	273.63245	128.88037	24.08010	273.97916	99.01775	17.43640	285.22623	62.66941	9.75749	295.92065	22.73786	6.90921	302.12067	-18.66043	5.68302	285.16190	191.22934	28.23210	289.22400	185.07826	13.43529	277.28845	196.25238	3.83911	260.45279	191.31120	27.96630	256.41309	180.76654	19.36690	251.95772	180.60710	3.73045	284.14047	129.89232	18.42995	301.78549	139.10674	19.33637	313.56107	133.57294	2.61583	315.65015	143.32178	2.50067	265.11240	128.48239	17.17520	246.61182	130.23958	16.85165	234.22060	117.58107	3.17174	225.10774	124.36375	4.13959	
